<svg width="30" height="30" fill="none" xmlns="http://www.w3.org/2000/svg"><path d="M7.461 8.281l-.833-3.75H4.216" stroke="#162F71" stroke-width="1.5" stroke-linecap="round" stroke-linejoin="round"/><path clip-rule="evenodd" d="M9.664 18.544L7.46 8.28h15.823a1.25 1.25 0 011.222 1.513l-1.877 8.75a1.25 1.25 0 01-1.223.987h-10.52a1.25 1.25 0 01-1.222-.987z" stroke="#162F71" stroke-width="1.5" stroke-linecap="round" stroke-linejoin="round"/><path d="M21.831 24.063a.469.469 0 10.005.937.469.469 0 00-.005-.938m-10.761.001a.465.465 0 00-.466.468.467.467 0 10.936 0 .47.47 0 00-.47-.468" stroke="#162F71" stroke-width="1.5" stroke-linecap="round" stroke-linejoin="round"/></svg>