<svg width="48" height="48" fill="none" xmlns="http://www.w3.org/2000/svg"><path d="M29.759 20.335A7.974 7.974 0 1118.48 31.614a7.974 7.974 0 0111.277-11.277" stroke="#5481BF" stroke-width="3" stroke-linecap="round" stroke-linejoin="round"/><path clip-rule="evenodd" d="M42 18v18c0 2.21-1.79 4-4 4H10c-2.21 0-4-1.79-4-4V18c0-2.21 1.79-4 4-4h4l2.924-5.008A2 2 0 0118.652 8H29.26c.702 0 1.352.368 1.714.968L34 14h4c2.21 0 4 1.79 4 4z" stroke="#5481BF" stroke-width="3" stroke-linecap="round" stroke-linejoin="round"/></svg>