<svg width="30" height="30" fill="none" xmlns="http://www.w3.org/2000/svg"><path d="M10.95 14.877v3.803c0 .836.472 1.6 1.22 1.974l.854.427a4.414 4.414 0 003.947 0l.854-.427a2.207 2.207 0 001.22-1.974v-3.803m5.64-12.972h-2.998v2.998M14.997 29a13.99 13.99 0 006.69-26.28M8.307 25.104v2.999H5.31m2.997-.815A13.98 13.98 0 015.104 5.107 13.943 13.943 0 0114.997 1m7.359 11.464v2.944m-14.042-1.85l5.048 2.522a3.673 3.673 0 003.28 0l5.043-2.522a1.222 1.222 0 000-2.187l-5.052-2.522a3.664 3.664 0 00-3.28 0l-5.04 2.522a1.222 1.222 0 000 2.187z" stroke="#fff" stroke-width="2" stroke-linecap="round" stroke-linejoin="round"/></svg>