<svg width="36" height="36" fill="none" xmlns="http://www.w3.org/2000/svg"><path clip-rule="evenodd" d="M28.5 25.5H27a1.5 1.5 0 01-1.5-1.5v-7.5A1.5 1.5 0 0127 15h1.5a3 3 0 013 3v4.5a3 3 0 01-3 3zM9 25.5H7.5a3 3 0 01-3-3V18a3 3 0 013-3H9a1.5 1.5 0 011.5 1.5V24A1.5 1.5 0 019 25.5z" stroke="#fff" stroke-width="2" stroke-linecap="round" stroke-linejoin="round"/><path d="M27.75 15v-.75A9.75 9.75 0 0018 4.5v0a9.75 9.75 0 00-9.75 9.75V15" stroke="#fff" stroke-width="2" stroke-linecap="round" stroke-linejoin="round"/><path clip-rule="evenodd" d="M18.938 31.875h-1.875A1.876 1.876 0 0115.188 30v0c0-1.035.84-1.875 1.874-1.875h1.875c1.035 0 1.875.84 1.875 1.875v0c0 1.035-.84 1.875-1.875 1.875z" stroke="#fff" stroke-width="2" stroke-linecap="round" stroke-linejoin="round"/><path d="M20.813 30H24a3 3 0 003-3v-1.5" stroke="#fff" stroke-width="2" stroke-linecap="round" stroke-linejoin="round"/></svg>