<svg width="48" height="48" fill="none" xmlns="http://www.w3.org/2000/svg"><path clip-rule="evenodd" d="M41.414 9.414l-2.828-2.828a1.998 1.998 0 00-2.828 0L14.586 27.758A1.995 1.995 0 0014 29.172V34h4.828c.53 0 1.04-.21 1.414-.586l21.172-21.172a1.998 1.998 0 000-2.828v0z" stroke="#4090FF" stroke-width="2" stroke-linecap="round" stroke-linejoin="round"/><path d="M37.82 15.82l-5.64-5.64M42 22v16c0 2.21-1.79 4-4 4H10c-2.21 0-4-1.79-4-4V10c0-2.21 1.79-4 4-4h16" stroke="#4090FF" stroke-width="2" stroke-linecap="round" stroke-linejoin="round"/></svg>