<svg width="20" height="21" fill="none" xmlns="http://www.w3.org/2000/svg"><path clip-rule="evenodd" d="M4.272 8.87v-.143A5.727 5.727 0 0110 3v0a5.727 5.727 0 015.727 5.727v.144c0 2.884-3.651 7.226-5.123 8.859a.81.81 0 01-1.208 0c-1.472-1.633-5.124-5.975-5.124-8.86z" stroke="#6D7885" stroke-width="1.447" stroke-linecap="round" stroke-linejoin="round"/><path d="M8.334 8.796c0 .92.745 1.667 1.666 1.667v0c.921 0 1.667-.746 1.667-1.667v-.03c0-.922-.746-1.668-1.667-1.668v0c-.92 0-1.666.746-1.666 1.667" stroke="#6D7885" stroke-width="1.447" stroke-linecap="round" stroke-linejoin="round"/></svg>