<svg width="24" height="24" fill="none" xmlns="http://www.w3.org/2000/svg"><path clip-rule="evenodd" d="M17.098 12.123l-5.4 4.32a1 1 0 01-1.332-.074l-2.735-2.736a1 1 0 01-.074-1.332l4.32-5.399a10.407 10.407 0 018.126-3.906v0a1 1 0 011 1v0c0 3.162-1.436 6.152-3.905 8.128z" stroke="#fff" stroke-width="1.5" stroke-linecap="round" stroke-linejoin="round"/><path d="M16.002 13v4.384a1 1 0 01-.553.895l-2.417 1.209a1 1 0 01-1.397-.579L11 17.002M6.998 13l-1.907-.635a1 1 0 01-.578-1.397L5.72 8.551a1 1 0 01.895-.553H11" stroke="#fff" stroke-width="1.5" stroke-linecap="round" stroke-linejoin="round"/><path clip-rule="evenodd" d="M5.748 20.59l-2.752.414.414-2.752a2.055 2.055 0 011.727-1.727v0a2.055 2.055 0 012.338 2.338v0a2.055 2.055 0 01-1.727 1.727v0z" stroke="#fff" stroke-width="1.5" stroke-linecap="round" stroke-linejoin="round"/></svg>