<svg width="36" height="36" fill="none" xmlns="http://www.w3.org/2000/svg"><path d="M16.546 30.005c-7.259-.02-13.204-5.774-13.46-13.029C2.83 9.721 8.354 3.562 15.594 3.03c7.24-.532 13.604 4.755 14.41 11.969" stroke="#fff" stroke-width="2" stroke-linecap="round" stroke-linejoin="round"/><path clip-rule="evenodd" d="M30.005 31.506h-6.002A3.001 3.001 0 0121 28.504v-6.002a3.001 3.001 0 013.002-3.001h6.002a3.001 3.001 0 013.001 3.001v6.003a3.001 3.001 0 01-3.001 3z" stroke="#fff" stroke-width="2" stroke-linecap="round" stroke-linejoin="round"/><path d="M29.004 24.502l-2.498 2.502-1.501-1.5M11.442 20.8l5.486-3.345v-6.979" stroke="#fff" stroke-width="2" stroke-linecap="round" stroke-linejoin="round"/></svg>