<svg width="48" height="48" fill="none" xmlns="http://www.w3.org/2000/svg"><path clip-rule="evenodd" d="M32.67 42.008H9.328a3.335 3.335 0 01-3.336-3.336V15.331a3.335 3.335 0 013.336-3.336h23.344a3.334 3.334 0 013.333 3.336v23.343a3.334 3.334 0 01-3.336 3.334z" stroke="#4090FF" stroke-width="2" stroke-linecap="round" stroke-linejoin="round"/><path d="M24.536 20.33a5.004 5.004 0 010 7.076 5.002 5.002 0 110-7.075m5.466 16.542a4.768 4.768 0 00-1.188-1.732v0a4.737 4.737 0 00-3.23-1.269h-9.171a4.75 4.75 0 00-3.23 1.269v0a4.768 4.768 0 00-1.188 1.732" stroke="#4090FF" stroke-width="2" stroke-linecap="round" stroke-linejoin="round"/><path d="M11.995 11.995V9.328a3.335 3.335 0 013.335-3.335h23.344a3.334 3.334 0 013.333 3.335v23.344a3.334 3.334 0 01-3.335 3.333h-2.667" stroke="#4090FF" stroke-width="2" stroke-linecap="round" stroke-linejoin="round"/></svg>