<svg width="36" height="36" fill="none" xmlns="http://www.w3.org/2000/svg"><path d="M31.506 14.248V9.747a3.752 3.752 0 00-3.752-3.752H8.246a3.752 3.752 0 00-3.752 3.752v2.25m27.012 9.755v4.502a3.752 3.752 0 01-3.752 3.751H19.5M2.994 18.9v10.205c.001 1.325 2.687 2.4 6.002 2.4s6-1.075 6.003-2.4V18.9" stroke="#fff" stroke-width="2" stroke-linecap="round" stroke-linejoin="round"/><path d="M14.997 18.9c0 1.326-2.688 2.401-6.003 2.401s-6-1.075-6-2.4c0-1.328 2.689-2.402 6.002-2.402 3.313 0 6 1.076 6.003 2.401M2.995 24.003c0 1.325 2.685 2.4 6 2.4 3.316 0 6.003-1.075 6.003-2.4" stroke="#fff" stroke-width="2" stroke-linecap="round" stroke-linejoin="round"/><path clip-rule="evenodd" d="M27.754 14.248h3.752a1.5 1.5 0 011.5 1.501v4.502a1.5 1.5 0 01-1.5 1.5h-3.752a3.752 3.752 0 01-3.752-3.75v0a3.752 3.752 0 013.752-3.753v0z" stroke="#fff" stroke-width="2" stroke-linecap="round" stroke-linejoin="round"/></svg>