<svg width="20" height="21" fill="none" xmlns="http://www.w3.org/2000/svg"><path clip-rule="evenodd" d="M15.17 5.302a7.22 7.22 0 00-5.14-2.13c-4.005 0-7.264 3.257-7.265 7.261a7.25 7.25 0 00.969 3.631l-1.03 3.764 3.85-1.01a7.27 7.27 0 003.473.884h.004c4.004 0 7.263-3.259 7.265-7.263 0-1.94-.755-3.764-2.126-5.137z" stroke="#6D7885" stroke-width="1.5" stroke-linecap="round" stroke-linejoin="round"/><path d="M10.913 11.8l.338-.336a.91.91 0 011.16-.096c.347.244.66.462.952.665a.9.9 0 01.12 1.38l-.299.3M6.788 7.316l.299-.3a.902.902 0 011.38.12c.202.292.42.606.665.952a.909.909 0 01-.096 1.161l-.336.338m4.484 4.126c-1.234 1.228-3.308.185-4.946-1.454m.002.003C6.603 10.623 5.56 8.55 6.788 7.316M8.7 9.588c.266.419.607.834.992 1.219l.002.001c.384.385.8.726 1.219.992" stroke="#6D7885" stroke-width="1.5" stroke-linecap="round" stroke-linejoin="round"/></svg>