<svg width="24" height="24" fill="none" xmlns="http://www.w3.org/2000/svg"><path clip-rule="evenodd" d="M18.204 5.762a8.665 8.665 0 00-6.167-2.556c-4.807 0-8.718 3.909-8.719 8.714a8.7 8.7 0 001.163 4.357l-1.237 4.516 4.622-1.212a8.717 8.717 0 004.167 1.061h.004c4.805 0 8.716-3.91 8.718-8.715a8.662 8.662 0 00-2.55-6.165z" stroke="#1552A6" stroke-width="1.5" stroke-linecap="round" stroke-linejoin="round"/><path d="M13.095 13.56l.406-.403c.373-.37.963-.417 1.393-.115.416.292.792.554 1.142.798.556.386.623 1.178.144 1.656l-.36.359M8.146 8.179l.359-.359a1.083 1.083 0 011.655.144c.243.35.505.726.799 1.142a1.09 1.09 0 01-.115 1.393l-.403.406m5.379 4.95c-1.48 1.474-3.97.222-5.934-1.744m.002.003C7.923 12.148 6.671 9.66 8.145 8.179m2.295 2.726a8.686 8.686 0 001.19 1.463l.002.002c.462.462.96.871 1.463 1.19" stroke="#1552A6" stroke-width="1.5" stroke-linecap="round" stroke-linejoin="round"/></svg>