<svg width="30" height="30" viewBox="0 0 30 30" fill="none" xmlns="http://www.w3.org/2000/svg">
<path d="M7.46131 8.28125L6.62756 4.53125H4.21631" stroke="#162F71" stroke-width="1.5" stroke-linecap="round" stroke-linejoin="round"/>
<path fill-rule="evenodd" clip-rule="evenodd" d="M9.66393 18.5438L7.46143 8.28125H23.2839C24.0802 8.28125 24.6727 9.015 24.5064 9.79375L22.6289 18.5438C22.5052 19.12 21.9964 19.5312 21.4064 19.5312H10.8852C10.2964 19.5312 9.78768 19.12 9.66393 18.5438Z" stroke="#162F71" stroke-width="1.5" stroke-linecap="round" stroke-linejoin="round"/>
<path d="M21.8315 24.0625C21.5727 24.0625 21.3627 24.2725 21.3652 24.5312C21.3652 24.79 21.5752 25 21.834 25C22.0927 25 22.3027 24.79 22.3027 24.5312C22.3015 24.2725 22.0915 24.0625 21.8315 24.0625" stroke="#162F71" stroke-width="1.5" stroke-linecap="round" stroke-linejoin="round"/>
<path d="M11.0699 24.0625C10.8112 24.0625 10.6012 24.2725 10.6037 24.5312C10.6024 24.79 10.8124 25 11.0712 25C11.3299 25 11.5399 24.79 11.5399 24.5312C11.5399 24.2725 11.3299 24.0625 11.0699 24.0625" stroke="#162F71" stroke-width="1.5" stroke-linecap="round" stroke-linejoin="round"/>
</svg>
