<svg width="48" height="48" viewBox="0 0 48 48" fill="none" xmlns="http://www.w3.org/2000/svg">
<path d="M29.7585 20.3355C32.8725 23.4496 32.8725 28.4984 29.7585 31.6125C26.6444 34.7265 21.5956 34.7265 18.4815 31.6125C15.3675 28.4984 15.3675 23.4496 18.4815 20.3355C21.5956 17.2215 26.6444 17.2215 29.7585 20.3355" stroke="#5481BF" stroke-width="3" stroke-linecap="round" stroke-linejoin="round"/>
<path fill-rule="evenodd" clip-rule="evenodd" d="M42 18V36C42 38.21 40.21 40 38 40H10C7.79 40 6 38.21 6 36V18C6 15.79 7.79 14 10 14H14L16.924 8.992C17.282 8.378 17.94 8 18.652 8H29.26C29.962 8 30.612 8.368 30.974 8.968L34 14H38C40.21 14 42 15.79 42 18Z" stroke="#5481BF" stroke-width="3" stroke-linecap="round" stroke-linejoin="round"/>
</svg>
