<svg width="30" height="30" viewBox="0 0 30 30" fill="none" xmlns="http://www.w3.org/2000/svg">
<path d="M10.95 14.8765V18.6797C10.9498 19.5159 11.4221 20.2804 12.1699 20.6541L13.0235 21.0811C14.266 21.7023 15.7284 21.7023 16.971 21.0811L17.8246 20.6541C18.5723 20.2804 19.0446 19.5159 19.0445 18.6797V14.8765M24.6844 1.90461H21.687V4.90302M14.9972 29C21.3977 29.0084 26.9869 24.6686 28.5663 18.4639C30.1457 12.2593 27.3121 5.77398 21.687 2.71923M8.30738 25.1051V28.1036H5.30997M8.30739 27.2889C4.43016 25.1833 1.77455 21.3699 1.14374 17.002C0.512923 12.6341 1.98099 8.22476 5.10392 5.1075C7.72358 2.47548 11.2843 0.997128 14.9972 1M22.3558 12.4637V15.4081M8.31393 13.558L13.362 16.0804C14.3947 16.5958 15.6095 16.5958 16.6423 16.0804L21.6854 13.558C22.0999 13.3513 22.3618 12.9278 22.3618 12.4645C22.3618 12.0012 22.0999 11.5777 21.6854 11.371L16.6325 8.84857C15.6001 8.33169 14.3845 8.33169 13.3521 8.84857L8.31393 11.371C7.89944 11.5777 7.63749 12.0012 7.63749 12.4645C7.63749 12.9278 7.89944 13.3513 8.31393 13.558Z" stroke="white" stroke-width="2" stroke-linecap="round" stroke-linejoin="round"/>
</svg>
