<svg width="24" height="24" viewBox="0 0 24 24" fill="none" xmlns="http://www.w3.org/2000/svg">
<rect x="7" y="8.5" width="7" height="7" rx="1.61538" stroke="#6D7885" stroke-width="1.5" stroke-linecap="round" stroke-linejoin="round"/>
<path fill-rule="evenodd" clip-rule="evenodd" d="M4.62847 17.1637C1.95054 13.3415 2.63856 8.10651 6.21315 5.10613C9.78773 2.10574 15.0628 2.33559 18.3629 5.63552C21.6629 8.93545 21.893 14.2105 18.8927 17.7852C15.8925 21.3599 10.6575 22.0482 6.83526 19.3704L3.99799 20.0008L4.62847 17.1637Z" stroke="#6D7885" stroke-width="1.5" stroke-linecap="round" stroke-linejoin="round"/>
<path d="M14 10.836L16.0089 9.59771C16.2095 9.4741 16.4612 9.46867 16.6669 9.58349C16.8725 9.69832 17 9.91545 17 10.151V13.849C17 14.0846 16.8725 14.3017 16.6669 14.4166C16.4612 14.5314 16.2095 14.526 16.0089 14.4023L14 13.164" stroke="#6D7885" stroke-width="1.5" stroke-linecap="round" stroke-linejoin="round"/>
</svg>
