<svg width="48" height="48" viewBox="0 0 48 48" fill="none" xmlns="http://www.w3.org/2000/svg">
<path fill-rule="evenodd" clip-rule="evenodd" d="M41.414 9.41401L38.586 6.58601C37.804 5.80401 36.538 5.80401 35.758 6.58601L14.586 27.758C14.21 28.132 14 28.642 14 29.172V34H18.828C19.358 34 19.868 33.79 20.242 33.414L41.414 12.242C42.196 11.462 42.196 10.196 41.414 9.41401V9.41401Z" stroke="#4090FF" stroke-width="2" stroke-linecap="round" stroke-linejoin="round"/>
<path d="M37.8199 15.8202L32.1799 10.1802" stroke="#4090FF" stroke-width="2" stroke-linecap="round" stroke-linejoin="round"/>
<path d="M42 22V38C42 40.21 40.21 42 38 42H10C7.79 42 6 40.21 6 38V10C6 7.79 7.79 6 10 6H26" stroke="#4090FF" stroke-width="2" stroke-linecap="round" stroke-linejoin="round"/>
</svg>
