<svg width="20" height="21" viewBox="0 0 20 21" fill="none" xmlns="http://www.w3.org/2000/svg">
<path fill-rule="evenodd" clip-rule="evenodd" d="M4.27246 8.87083V8.7275C4.27246 5.56417 6.83663 3 9.99996 3V3C13.1633 3 15.7275 5.56417 15.7275 8.7275V8.87083C15.7275 11.755 12.0758 16.0967 10.6041 17.73C10.28 18.09 9.71996 18.09 9.39579 17.73C7.92413 16.0967 4.27246 11.755 4.27246 8.87083Z" stroke="#6D7885" stroke-width="1.4468" stroke-linecap="round" stroke-linejoin="round"/>
<path d="M8.3335 8.79589C8.3335 9.71672 9.07933 10.4626 10.0002 10.4626V10.4626C10.921 10.4626 11.6668 9.71672 11.6668 8.79589V8.76506C11.6668 7.84422 10.921 7.09839 10.0002 7.09839V7.09839C9.07933 7.09839 8.3335 7.84422 8.3335 8.76506" stroke="#6D7885" stroke-width="1.4468" stroke-linecap="round" stroke-linejoin="round"/>
</svg>
