<svg width="24" height="24" viewBox="0 0 24 24" fill="none" xmlns="http://www.w3.org/2000/svg">
<path fill-rule="evenodd" clip-rule="evenodd" d="M17.0979 12.1235L11.6989 16.4427C11.3008 16.7611 10.727 16.7293 10.3665 16.3689L7.63116 13.6335C7.2707 13.2731 7.23892 12.6992 7.55736 12.3012L11.8766 6.90218C13.8516 4.43337 16.8418 2.99622 20.0034 2.99622V2.99622C20.5559 2.99622 21.0038 3.44412 21.0038 3.99663V3.99663C21.0038 7.15825 19.5667 10.1484 17.0979 12.1235Z" stroke="white" stroke-width="1.5" stroke-linecap="round" stroke-linejoin="round"/>
<path d="M16.0018 13.0004V17.3843C16.0018 17.7632 15.7877 18.1096 15.4488 18.279L13.0319 19.4875C12.7725 19.6172 12.4696 19.628 12.2016 19.517C11.9337 19.406 11.7271 19.1842 11.6354 18.9091L10.9998 17.0021" stroke="white" stroke-width="1.5" stroke-linecap="round" stroke-linejoin="round"/>
<path d="M6.99799 13.0004L5.09104 12.3648C4.81591 12.2731 4.59412 12.0665 4.48314 11.7985C4.37215 11.5306 4.3829 11.2277 4.5126 10.9683L5.7211 8.55137C5.89055 8.21247 6.23693 7.99835 6.61583 7.99835H10.9997" stroke="white" stroke-width="1.5" stroke-linecap="round" stroke-linejoin="round"/>
<path fill-rule="evenodd" clip-rule="evenodd" d="M5.74758 20.5904L2.99634 21.0037L3.40966 18.2525C3.54374 17.36 4.24436 16.6594 5.13687 16.5253V16.5253C5.78182 16.4284 6.43449 16.6433 6.89566 17.1045C7.35682 17.5656 7.57175 18.2183 7.47484 18.8633V18.8633C7.34074 19.7558 6.64009 20.4564 5.74758 20.5904V20.5904Z" stroke="white" stroke-width="1.5" stroke-linecap="round" stroke-linejoin="round"/>
</svg>
