<svg width="36" height="36" viewBox="0 0 36 36" fill="none" xmlns="http://www.w3.org/2000/svg">
<path d="M16.5462 30.005C9.28699 29.9853 3.34191 24.2308 3.08571 16.9761C2.82951 9.72144 8.35386 3.56191 15.5935 3.03012C22.8332 2.49834 29.1983 7.78455 30.0049 14.9988" stroke="white" stroke-width="2" stroke-linecap="round" stroke-linejoin="round"/>
<path fill-rule="evenodd" clip-rule="evenodd" d="M30.005 31.5057H24.0025C22.3449 31.5057 21.0012 30.162 21.0012 28.5045V22.502C21.0012 20.8444 22.3449 19.5007 24.0025 19.5007H30.005C31.6625 19.5007 33.0062 20.8444 33.0062 22.502V28.5045C33.0062 30.162 31.6625 31.5057 30.005 31.5057Z" stroke="white" stroke-width="2" stroke-linecap="round" stroke-linejoin="round"/>
<path d="M29.004 24.5023L26.5055 27.0039L25.0049 25.5032" stroke="white" stroke-width="2" stroke-linecap="round" stroke-linejoin="round"/>
<path d="M11.4421 20.8003L16.9284 17.4554V10.476" stroke="white" stroke-width="2" stroke-linecap="round" stroke-linejoin="round"/>
</svg>
