<svg width="48" height="48" viewBox="0 0 48 48" fill="none" xmlns="http://www.w3.org/2000/svg">
<path fill-rule="evenodd" clip-rule="evenodd" d="M32.6695 42.0076H9.32782C7.48505 42.0076 5.99243 40.515 5.99243 38.6722V15.3305C5.99243 13.4877 7.48505 11.9951 9.32782 11.9951H32.6715C34.5123 11.9951 36.0049 13.4877 36.0049 15.3305V38.6742C36.0049 40.515 34.5123 42.0076 32.6695 42.0076Z" stroke="#4090FF" stroke-width="2" stroke-linecap="round" stroke-linejoin="round"/>
<path d="M24.5362 20.3306C26.489 22.2834 26.489 25.4507 24.5362 27.4055C22.5833 29.3584 19.416 29.3584 17.4612 27.4055C15.5064 25.4527 15.5084 22.2854 17.4612 20.3306C19.414 18.3758 22.5813 18.3778 24.5362 20.3306" stroke="#4090FF" stroke-width="2" stroke-linecap="round" stroke-linejoin="round"/>
<path d="M30.0024 36.8733C29.7403 36.215 29.3341 35.6228 28.8139 35.1406V35.1406C27.9355 34.3243 26.785 33.8721 25.5845 33.8721C23.5837 33.8721 18.4135 33.8721 16.4127 33.8721C15.2122 33.8721 14.0637 34.3263 13.1834 35.1406V35.1406C12.6632 35.6228 12.257 36.215 11.9949 36.8733" stroke="#4090FF" stroke-width="2" stroke-linecap="round" stroke-linejoin="round"/>
<path d="M11.9949 11.9952V9.32806C11.9949 7.4853 13.4875 5.99268 15.3303 5.99268H38.674C40.5147 5.99268 42.0074 7.4853 42.0074 9.32806V32.6718C42.0074 34.5126 40.5147 36.0052 38.672 36.0052H36.0049" stroke="#4090FF" stroke-width="2" stroke-linecap="round" stroke-linejoin="round"/>
</svg>
