<svg width="36" height="36" viewBox="0 0 36 36" fill="none" xmlns="http://www.w3.org/2000/svg">
<path d="M31.5056 14.2484V9.74656C31.5056 7.67463 29.826 5.995 27.7541 5.995H8.24595C6.17402 5.995 4.49438 7.67463 4.49438 9.74656V11.9975" stroke="white" stroke-width="2" stroke-linecap="round" stroke-linejoin="round"/>
<path d="M31.5055 21.7516V26.2535C31.5055 28.3254 29.8259 30.005 27.7539 30.005H19.5005" stroke="white" stroke-width="2" stroke-linecap="round" stroke-linejoin="round"/>
<path d="M2.99365 18.9004V29.1046C2.99536 30.4303 5.68106 31.5056 8.99615 31.5056C12.3112 31.5056 14.9969 30.4303 14.9987 29.1046V18.9004" stroke="white" stroke-width="2" stroke-linecap="round" stroke-linejoin="round"/>
<path d="M14.9969 18.9004C14.9969 20.2261 12.3095 21.3014 8.99444 21.3014C5.67935 21.3014 2.99365 20.2261 2.99365 18.9004C2.99365 17.573 5.68277 16.4994 8.99615 16.4994C12.3095 16.4994 14.9969 17.5747 14.9987 18.9004" stroke="white" stroke-width="2" stroke-linecap="round" stroke-linejoin="round"/>
<path d="M2.99463 24.0026C2.99463 25.3283 5.68033 26.4036 8.99542 26.4036C12.3105 26.4036 14.9979 25.3283 14.9979 24.0026" stroke="white" stroke-width="2" stroke-linecap="round" stroke-linejoin="round"/>
<path fill-rule="evenodd" clip-rule="evenodd" d="M27.754 14.2485H31.5056C32.3343 14.2485 33.0062 14.9204 33.0062 15.7492V20.251C33.0062 21.0798 32.3343 21.7517 31.5056 21.7517H27.754C25.6821 21.7517 24.0024 20.072 24.0024 18.0001V18.0001C24.0024 15.9282 25.6821 14.2485 27.754 14.2485V14.2485Z" stroke="white" stroke-width="2" stroke-linecap="round" stroke-linejoin="round"/>
</svg>
