<svg width="20" height="21" viewBox="0 0 20 21" fill="none" xmlns="http://www.w3.org/2000/svg">
<path fill-rule="evenodd" clip-rule="evenodd" d="M15.1698 5.30163C13.7981 3.92913 11.974 3.17246 10.0306 3.17163C6.02479 3.17163 2.76563 6.42913 2.76479 10.4333C2.76313 11.7075 3.09729 12.96 3.73396 14.0641L2.70312 17.8275L6.55479 16.8175C7.62063 17.3975 8.81396 17.7016 10.0273 17.7016H10.0306C14.0348 17.7016 17.294 14.4433 17.2956 10.4391C17.2965 8.49913 16.5415 6.67496 15.1698 5.30163Z" stroke="#6D7885" stroke-width="1.5" stroke-linecap="round" stroke-linejoin="round"/>
<path d="M10.9126 11.8L11.2509 11.4642C11.5618 11.1559 12.0534 11.1167 12.4118 11.3684C12.7584 11.6117 13.0718 11.83 13.3634 12.0334C13.8268 12.355 13.8826 13.015 13.4834 13.4134L13.1843 13.7125" stroke="#6D7885" stroke-width="1.5" stroke-linecap="round" stroke-linejoin="round"/>
<path d="M6.7876 7.31583L7.08676 7.01666C7.4851 6.61833 8.1451 6.67416 8.46676 7.13666C8.66926 7.42833 8.8876 7.74166 9.13176 8.08833C9.38343 8.44666 9.3451 8.93833 9.03593 9.24916L8.7001 9.58749" stroke="#6D7885" stroke-width="1.5" stroke-linecap="round" stroke-linejoin="round"/>
<path d="M13.1841 13.7125C11.9499 14.9408 9.87578 13.8975 8.23828 12.2592" stroke="#6D7885" stroke-width="1.5" stroke-linecap="round" stroke-linejoin="round"/>
<path d="M8.24005 12.2616C6.60256 10.6233 5.55922 8.54996 6.78756 7.3158" stroke="#6D7885" stroke-width="1.5" stroke-linecap="round" stroke-linejoin="round"/>
<path d="M8.7002 9.58752C8.96603 10.0067 9.30686 10.4217 9.69186 10.8067L9.69353 10.8084C10.0785 11.1934 10.4935 11.5342 10.9127 11.8" stroke="#6D7885" stroke-width="1.5" stroke-linecap="round" stroke-linejoin="round"/>
</svg>
