<svg width="24" height="24" viewBox="0 0 24 24" fill="none" xmlns="http://www.w3.org/2000/svg">
<path fill-rule="evenodd" clip-rule="evenodd" d="M18.2041 5.76199C16.5581 4.11499 14.3691 3.20699 12.0371 3.20599C7.23014 3.20599 3.31914 7.11499 3.31814 11.92C3.31614 13.449 3.71714 14.952 4.48114 16.277L3.24414 20.793L7.86614 19.581C9.14514 20.277 10.5771 20.642 12.0331 20.642H12.0371C16.8421 20.642 20.7531 16.732 20.7551 11.927C20.7561 9.59899 19.8501 7.40999 18.2041 5.76199Z" stroke="#1552A6" stroke-width="1.5" stroke-linecap="round" stroke-linejoin="round"/>
<path d="M13.0947 13.56L13.5007 13.157C13.8737 12.787 14.4637 12.74 14.8937 13.042C15.3097 13.334 15.6857 13.596 16.0357 13.84C16.5917 14.226 16.6587 15.018 16.1797 15.496L15.8207 15.855" stroke="#1552A6" stroke-width="1.5" stroke-linecap="round" stroke-linejoin="round"/>
<path d="M8.14551 8.17899L8.50451 7.81999C8.98251 7.34199 9.77451 7.40899 10.1605 7.96399C10.4035 8.31399 10.6655 8.68999 10.9585 9.10599C11.2605 9.53599 11.2145 10.126 10.8435 10.499L10.4405 10.905" stroke="#1552A6" stroke-width="1.5" stroke-linecap="round" stroke-linejoin="round"/>
<path d="M15.8207 15.855C14.3397 17.329 11.8507 16.077 9.88574 14.111" stroke="#1552A6" stroke-width="1.5" stroke-linecap="round" stroke-linejoin="round"/>
<path d="M9.88807 14.114C7.92307 12.148 6.67107 9.65999 8.14507 8.17899" stroke="#1552A6" stroke-width="1.5" stroke-linecap="round" stroke-linejoin="round"/>
<path d="M10.4404 10.905C10.7594 11.408 11.1684 11.906 11.6304 12.368L11.6324 12.37C12.0944 12.832 12.5924 13.241 13.0954 13.56" stroke="#1552A6" stroke-width="1.5" stroke-linecap="round" stroke-linejoin="round"/>
</svg>
